<?xml version="1.0" encoding="iso-8859-1"?>
<!-- Uploaded to: SVG Repo, www.svgrepo.com, Generator: SVG Repo Mixer Tools -->
<!DOCTYPE svg PUBLIC "-//W3C//DTD SVG 1.1//EN" "http://www.w3.org/Graphics/SVG/1.1/DTD/svg11.dtd">
<svg fill="#000000" height="800px" width="800px" version="1.1" id="Capa_1" xmlns="http://www.w3.org/2000/svg" xmlns:xlink="http://www.w3.org/1999/xlink" 
	 viewBox="0 0 456.899 456.899" xml:space="preserve">
<path id="XMLID_1275_" d="M228.449,0C138.236,0,65.103,69.339,65.103,154.873v103.353c0,26.242,19.251,47.986,44.401,51.885
	l3.361,75.226c1.774,39.715,34.403,71.05,74.158,71.217l82.24,0.345c40.003,0.168,73.007-31.268,74.784-71.232l3.361-75.559
	c25.143-3.904,44.388-25.645,44.388-51.882V154.873C391.796,69.339,318.663,0,228.449,0z M228.449,235.822
	c2.204,0,4.245,1.157,5.378,3.047l26.929,44.958c1.16,1.937,1.189,4.348,0.076,6.312c-1.113,1.964-3.196,3.178-5.454,3.178H201.52
	c-2.257,0-4.341-1.214-5.454-3.178c-1.113-1.964-1.084-4.375,0.076-6.312l26.929-44.958
	C224.204,236.98,226.246,235.822,228.449,235.822z M119.009,224.133l-1.827-20.898l-19.311-8.195l10.806-17.98l-10.806-17.98
	l19.311-8.195l1.827-20.898l20.439,4.721l13.761-15.833l13.761,15.833l20.44-4.721l1.826,20.898l19.311,8.195l-10.806,17.98
	l10.806,17.98l-19.311,8.195l-1.826,20.898l-20.44-4.721l-13.761,15.833l-13.761-15.833L119.009,224.133z M280.141,391.842H176.758
	c-18.125,0-32.819-14.693-32.819-32.819c0-18.125,14.693-32.819,32.819-32.819h103.384c18.126,0,32.819,14.693,32.819,32.819
	C312.96,377.149,298.267,391.842,280.141,391.842z M359.028,195.04l-19.311,8.195l-1.827,20.898l-20.44-4.721l-13.761,15.833
	l-13.761-15.833l-20.44,4.721l-1.826-20.898l-19.311-8.195l10.806-17.98l-10.806-17.98l19.311-8.195l1.826-20.898l20.44,4.721
	l13.761-15.833l13.761,15.833l20.44-4.721l1.827,20.898l19.311,8.195l-10.806,17.98L359.028,195.04z"/>
</svg>